<svg width="48" height="48" viewBox="0 0 48 48" fill="none" xmlns="http://www.w3.org/2000/svg">
<g clip-path="url(#clip0_3_3)">
<circle cx="24" cy="24" r="24" fill="#008236"/>
<path d="M24 7.04062C27.5346 7.04062 30.3994 9.90541 30.3994 13.44C30.3994 15.6352 29.2936 17.5704 27.6094 18.7232L39.2871 26.5084C40.0222 26.9985 40.2213 27.9919 39.7314 28.7271C39.2413 29.4623 38.2479 29.6614 37.5127 29.1715L32.7998 26.0289V37.44L32.7978 37.5221C32.7549 38.3673 32.0561 39.0395 31.2002 39.0396C30.3165 39.0396 29.6006 38.3237 29.6006 37.44V31.8394H18.3994V37.44L18.3984 37.5221C18.3555 38.3674 17.6558 39.0396 16.7998 39.0396C15.9162 39.0395 15.2002 38.3236 15.2002 37.44V26.0289L10.4873 29.1715C9.75207 29.6614 8.75865 29.4623 8.26855 28.7271C7.77867 27.9919 7.97775 26.9985 8.71288 26.5084L20.3896 18.7232C18.7058 17.5704 17.6006 15.6349 17.6006 13.44C17.6006 9.90541 20.4654 7.04062 24 7.04062ZM18.3994 23.8961V28.6402H29.6006V23.8961L24 20.1627L18.3994 23.8961ZM24 10.2398C22.2327 10.2398 20.7998 11.6727 20.7998 13.44C20.7998 15.2073 22.2327 16.6402 24 16.6402C25.7673 16.6402 27.2002 15.2073 27.2002 13.44C27.2002 11.6727 25.7673 10.2398 24 10.2398Z" fill="white"/>
</g>
<defs>
<clipPath id="clip0_3_3">
<rect width="48" height="48" fill="white"/>
</clipPath>
</defs>
</svg>
